<svg width="19" height="18" viewBox="0 0 19 18" fill="none" xmlns="http://www.w3.org/2000/svg">
<path d="M9.12425 1.91214C8.15077 1.91214 7.18682 2.10388 6.28744 2.47642C5.38806 2.84895 4.57086 3.39499 3.88251 4.08334C2.49231 5.47354 1.7113 7.35905 1.7113 9.32509C1.7113 12.6016 3.83882 15.3815 6.78176 16.3674C7.15241 16.4267 7.27101 16.1969 7.27101 15.9967C7.27101 15.8262 7.27101 15.3592 7.27101 14.7439C5.21763 15.1887 4.78026 13.7506 4.78026 13.7506C4.43927 12.8907 3.95743 12.6609 3.95743 12.6609C3.28285 12.2013 4.00932 12.2161 4.00932 12.2161C4.75061 12.268 5.1435 12.9797 5.1435 12.9797C5.78842 14.1064 6.87813 13.7729 7.30066 13.5949C7.36738 13.1131 7.56012 12.7869 7.76768 12.6016C6.12201 12.4163 4.39479 11.7788 4.39479 8.95444C4.39479 8.1316 4.67648 7.47185 5.15832 6.94553C5.08419 6.76021 4.82474 5.98926 5.23245 4.98851C5.23245 4.98851 5.85514 4.78836 7.27101 5.74463C7.85664 5.58155 8.49415 5.50001 9.12425 5.50001C9.75435 5.50001 10.3919 5.58155 10.9775 5.74463C12.3934 4.78836 13.016 4.98851 13.016 4.98851C13.4238 5.98926 13.1643 6.76021 13.0902 6.94553C13.572 7.47185 13.8537 8.1316 13.8537 8.95444C13.8537 11.7862 12.1191 12.4089 10.466 12.5942C10.7329 12.824 10.9775 13.2762 10.9775 13.9656C10.9775 14.9589 10.9775 15.7595 10.9775 15.9967C10.9775 16.1969 11.0961 16.4341 11.4742 16.3674C14.4171 15.374 16.5372 12.6016 16.5372 9.32509C16.5372 8.3516 16.3455 7.38765 15.9729 6.48827C15.6004 5.58889 15.0543 4.7717 14.366 4.08334C13.6776 3.39499 12.8604 2.84895 11.9611 2.47642C11.0617 2.10388 10.0977 1.91214 9.12425 1.91214Z" fill="white"/>
</svg>
