<svg width="25" height="25" viewBox="0 0 25 25" fill="none" xmlns="http://www.w3.org/2000/svg">
<path d="M19.9727 3.27979C20.5031 3.27979 21.0118 3.4905 21.3869 3.86557C21.7619 4.24064 21.9727 4.74935 21.9727 5.27979V19.2798C21.9727 19.8102 21.7619 20.3189 21.3869 20.694C21.0118 21.0691 20.5031 21.2798 19.9727 21.2798H5.97266C5.44222 21.2798 4.93352 21.0691 4.55844 20.694C4.18337 20.3189 3.97266 19.8102 3.97266 19.2798V5.27979C3.97266 4.74935 4.18337 4.24064 4.55844 3.86557C4.93352 3.4905 5.44222 3.27979 5.97266 3.27979H19.9727ZM19.4727 18.7798V13.4798C19.4727 12.6152 19.1292 11.786 18.5178 11.1746C17.9065 10.5632 17.0773 10.2198 16.2127 10.2198C15.3627 10.2198 14.3727 10.7398 13.8927 11.5198V10.4098H11.1027V18.7798H13.8927V13.8498C13.8927 13.0798 14.5127 12.4498 15.2827 12.4498C15.654 12.4498 16.0101 12.5973 16.2726 12.8598C16.5352 13.1224 16.6827 13.4785 16.6827 13.8498V18.7798H19.4727ZM7.85266 8.83979C8.29822 8.83979 8.72553 8.66279 9.0406 8.34772C9.35566 8.03266 9.53266 7.60535 9.53266 7.15979C9.53266 6.22979 8.78266 5.46979 7.85266 5.46979C7.40444 5.46979 6.97458 5.64784 6.65765 5.96477C6.34071 6.28171 6.16266 6.71157 6.16266 7.15979C6.16266 8.08979 6.92266 8.83979 7.85266 8.83979ZM9.24266 18.7798V10.4098H6.47266V18.7798H9.24266Z" fill="white"/>
</svg>
